<?xml version="1.0" encoding="utf-8"?>
<!-- Generator: Adobe Illustrator 18.1.1, SVG Export Plug-In . SVG Version: 6.00 Build 0)  -->
<svg version="1.1" id="Layer_1" xmlns="http://www.w3.org/2000/svg" xmlns:xlink="http://www.w3.org/1999/xlink" x="0px" y="0px"
	 width="261.5px" height="53px" viewBox="-134 378.8 261.5 53" enable-background="new -134 378.8 261.5 53" xml:space="preserve">
<path fill="#212020" d="M-94.5,413.7c0-2.4,0.3-4.2,1-5.4c0.6-1,1.6-1.9,3.2-2.6c0.8-0.3,2.5-1,5.1-1.9c0,0,0,0,0-0.1
	c0-0.4,0-0.7,0-1c0-0.2,0-0.5,0-0.8c0-0.3,0-0.5,0-0.7c0-0.2,0-0.3-0.1-0.6c0-0.2-0.1-0.4-0.1-0.5c0-0.1-0.1-0.2-0.1-0.3
	c-0.1-0.1-0.1-0.3-0.2-0.3s-0.1-0.1-0.2-0.2c-0.1-0.1-0.2-0.1-0.3-0.1c-0.1-0.1-0.2-0.1-0.3-0.1c-0.9,0-1.3,0.5-1.3,1.4v1.8H-94
	c0-0.2,0-0.5,0-0.9c0-2.5,0.6-4.5,1.9-5.6s3.2-1.8,6.1-1.8c0.9,0,1.8,0.1,2.7,0.4s1.6,0.6,2.4,1.2c0.8,0.5,1.3,1.2,1.8,2.1
	c0.5,0.9,0.7,1.9,0.7,3.1v20.5H-85v-2.8c-0.2,0.8-0.7,1.5-1.5,2.1c-0.8,0.6-1.6,1-2.5,1c-0.6,0-1.2-0.1-1.7-0.1
	c-0.5-0.1-1-0.3-1.4-0.7s-0.9-0.8-1.2-1.4s-0.5-1.4-0.8-2.3C-94.5,416.1-94.5,415-94.5,413.7z M-88,411.1v3.2c0,1.6,0.5,2.4,1.4,2.4
	c0.3,0,0.5-0.1,0.7-0.2c0.2-0.1,0.3-0.3,0.4-0.5s0.1-0.5,0.2-0.7s0.1-0.4,0.1-0.7v-7.1c-1.1,0.4-1.9,1-2.2,1.6
	C-87.8,409.6-88,410.4-88,411.1z"/>
<path fill="#212020" d="M-75.8,421.4v-26.9h6.5v3c0.3-1.2,0.9-2.1,1.5-2.6c0.6-0.5,1.4-0.8,2.5-0.8c1.2,0,2.3,0.3,3.2,1.1
	c0.9,0.8,1.4,1.8,1.4,3.2v9h-6.2V401c0-0.3,0-0.6-0.1-0.8c0-0.2-0.1-0.4-0.3-0.6c-0.1-0.2-0.4-0.3-0.7-0.3c-0.3,0-0.6,0.1-0.8,0.4
	c-0.2,0.3-0.3,0.6-0.3,1.1v20.6H-75.8L-75.8,421.4z"/>
<path fill="#212020" d="M-49.7,424.7v-4.9c-0.5,0.6-1,1.1-1.6,1.4s-1.3,0.5-2,0.5c-0.8,0-1.5-0.1-2.1-0.3c-0.6-0.2-1.2-0.4-1.5-0.7
	c-0.4-0.3-0.8-0.7-1-1.2c-0.3-0.5-0.5-1-0.6-1.4s-0.3-1-0.3-1.7c-0.1-0.8-0.1-1.4-0.1-1.8s0-1.1,0-1.9c0-0.1,0-0.1,0-0.1v-10.6
	c0-0.9,0.1-1.8,0.1-2.5c0.1-0.8,0.3-1.5,0.5-2.2s0.6-1.3,1-1.7c0.4-0.5,1-0.8,1.6-1.1c0.7-0.3,1.4-0.4,2.3-0.4
	c1.6,0,2.9,0.6,3.8,1.8v-1.4h6.5v30.2L-49.7,424.7L-49.7,424.7z M-49.7,402.1c0-1.9-0.5-2.8-1.5-2.8c-0.2,0-0.4,0.1-0.6,0.1
	s-0.3,0.2-0.4,0.4c-0.1,0.2-0.2,0.3-0.3,0.5s-0.1,0.3-0.1,0.6c-0.1,0.3,0,0.5-0.1,0.6c0,0.1,0,0.3,0,0.6v11.4c0,1.2,0.1,1.9,0.3,2.4
	s0.5,0.8,1.1,0.8c0.5,0,1-0.2,1.2-0.7c0.2-0.5,0.3-1.2,0.3-2.1L-49.7,402.1L-49.7,402.1z"/>
<path fill="#212020" d="M-30.8,394.5h6.4v26.9h-6.4v-2.9c-0.5,1.2-1.1,2.1-1.7,2.5s-1.4,0.6-2.4,0.6c-0.9,0-1.7-0.1-2.3-0.4
	c-0.7-0.3-1.2-0.6-1.5-1c-0.3-0.4-0.7-1-0.9-1.6c-0.2-0.7-0.3-1.3-0.4-1.9s-0.1-1.4-0.1-2.2v-20h6.5v18.7c0,1.4,0.1,2.3,0.3,2.7
	c0.1,0.5,0.5,0.7,1.2,0.7c0.2,0,0.5-0.1,0.6-0.1c0.2-0.1,0.3-0.2,0.4-0.4s0.2-0.3,0.3-0.5c0.1-0.2,0.1-0.4,0.1-0.7
	c0-0.3,0.1-0.5,0.1-0.7c0-0.1,0-0.4,0-0.7c0-0.1,0-0.1,0-0.2L-30.8,394.5z"/>
<path fill="#212020" d="M-14.1,421.7c-1,0-1.9-0.1-2.6-0.3s-1.4-0.5-2-0.8c-0.5-0.3-1-0.7-1.4-1.2c-0.4-0.5-0.7-1-0.9-1.5
	c-0.2-0.5-0.4-1.1-0.5-1.7c-0.1-0.6-0.2-1.2-0.3-1.8c-0.1-0.5-0.1-1.2-0.1-1.9v-10.8c0-2.5,0.7-4.4,2.1-5.7s3.4-2,6-2
	c5.1,0,7.8,2.5,7.8,7.6v1.9c0,2.4,0,4.1-0.1,5h-9.3v3.8c0,0.1,0,0.3,0,0.5s0,0.5,0,0.6c0,0.4,0,0.8,0.1,1.1c0.1,0.3,0.1,0.6,0.2,1
	c0.1,0.3,0.3,0.5,0.5,0.7c0.2,0.1,0.5,0.3,0.8,0.3c0.3,0,0.6-0.1,0.8-0.3c0.2-0.3,0.3-0.6,0.5-1c0.1-0.5,0.1-0.9,0.1-1.2
	s0.1-0.8,0.1-1.4c0-1,0-1.6-0.1-1.7H-6v1.5c0,1.5-0.1,2.7-0.3,3.8c-0.2,1-0.6,2-1.2,2.8c-0.5,0.8-1.4,1.4-2.5,1.9
	C-11.1,421.5-12.5,421.7-14.1,421.7z M-13.9,399c-0.3,0-0.6,0.1-0.8,0.3c-0.2,0.2-0.4,0.4-0.5,0.8c-0.1,0.3-0.2,0.7-0.2,1.1
	c-0.1,0.3-0.1,0.8-0.1,1.3c0,0.3,0,0.6,0,1.1s0,0.9,0,1.1h3v-2.8C-12.4,399.9-12.9,399-13.9,399z"/>
<path fill="#212020" d="M3.9,421.7c-1,0-1.9-0.1-2.6-0.3c-0.8-0.2-1.4-0.5-2-0.8c-0.5-0.3-1-0.7-1.4-1.2c-0.4-0.5-0.7-1-0.9-1.5
	c-0.2-0.5-0.4-1.1-0.5-1.7c-0.1-0.6-0.2-1.2-0.3-1.8c-0.1-0.5-0.1-1.2-0.1-1.9v-10.8c0-2.5,0.7-4.4,2.1-5.7s3.4-2,6-2
	c5.1,0,7.8,2.5,7.8,7.6v1.9c0,2.4,0,4.1-0.1,5H2.6v3.8c0,0.1,0,0.3,0,0.5c0,0.3,0,0.5,0,0.6c0,0.4,0,0.8,0.1,1.1
	c0.1,0.3,0.1,0.6,0.2,1c0.1,0.3,0.3,0.5,0.5,0.7c0.2,0.1,0.5,0.3,0.8,0.3s0.6-0.1,0.8-0.3c0.2-0.3,0.3-0.6,0.5-1
	c0.1-0.5,0.1-0.9,0.1-1.2s0.1-0.8,0.1-1.4c0-1,0-1.6-0.1-1.7H12v1.5c0,1.5-0.1,2.7-0.3,3.8c-0.2,1-0.6,2-1.2,2.8
	c-0.6,0.8-1.4,1.4-2.5,1.9C6.8,421.5,5.5,421.7,3.9,421.7z M4.1,399c-0.3,0-0.6,0.1-0.8,0.3c-0.2,0.2-0.4,0.4-0.5,0.8
	c-0.1,0.3-0.2,0.7-0.2,1.1c-0.1,0.3-0.1,0.8-0.1,1.3c0,0.3,0,0.6,0,1.1s0,0.9,0,1.1h3v-2.8C5.6,399.9,5.1,399,4.1,399z"/>
<path fill="#212020" d="M56,413.7c0-2.4,0.3-4.2,1-5.4c0.6-1,1.6-1.9,3.2-2.6c0.8-0.3,2.5-1,5.1-1.9c0,0,0,0,0-0.1c0-0.4,0-0.7,0-1
	c0-0.2,0-0.5,0-0.8c0-0.3,0-0.5,0-0.7c0-0.2,0-0.3-0.1-0.6s-0.1-0.4-0.1-0.5c0-0.1-0.1-0.2-0.1-0.3s-0.1-0.3-0.2-0.3
	s-0.1-0.1-0.2-0.2c-0.1-0.1-0.2-0.1-0.3-0.1c-0.1,0-0.2-0.1-0.3-0.1c-0.9,0-1.3,0.5-1.3,1.4v1.8h-6.2c0-0.2,0-0.5,0-0.9
	c0-2.5,0.6-4.5,1.9-5.6c1.2-1.2,3.2-1.8,6.1-1.8c0.9,0,1.8,0.1,2.7,0.4s1.6,0.6,2.4,1.2c0.8,0.5,1.3,1.2,1.8,2.1
	c0.5,0.9,0.7,1.9,0.7,3.1v20.5h-6.4v-2.8c-0.2,0.8-0.7,1.5-1.5,2.1c-0.8,0.6-1.6,1-2.5,1c-0.6,0-1.2-0.1-1.7-0.1
	c-0.5-0.1-1-0.3-1.4-0.7c-0.5-0.3-0.9-0.8-1.2-1.4s-0.5-1.4-0.8-2.3C56.1,416.1,56,415,56,413.7z M62.5,411.1v3.2
	c0,1.6,0.5,2.4,1.4,2.4c0.3,0,0.5-0.1,0.7-0.2c0.2-0.1,0.3-0.3,0.4-0.5c0.1-0.2,0.1-0.5,0.2-0.7c0.1-0.2,0.1-0.4,0.1-0.7v-7.1
	c-1.1,0.4-1.9,1-2.2,1.6C62.7,409.6,62.5,410.4,62.5,411.1z"/>
<path fill="#212020" d="M74.8,421.4v-31.7h6.3v14.1l3.1-9.3h6.7l-4.1,11.7l5.1,15.2h-6.9l-4-12.7v12.7L74.8,421.4L74.8,421.4z"/>
<path fill="#212020" d="M99.9,421.7c-1,0-1.9-0.1-2.6-0.3s-1.4-0.5-2-0.8c-0.5-0.3-1-0.7-1.4-1.2c-0.4-0.5-0.7-1-0.9-1.5
	c-0.2-0.5-0.4-1.1-0.5-1.7c-0.1-0.6-0.2-1.2-0.3-1.8c-0.1-0.5-0.1-1.2-0.1-1.9v-10.8c0-2.5,0.7-4.4,2.1-5.7s3.4-2,6-2
	c5.1,0,7.8,2.5,7.8,7.6v1.9c0,2.4,0,4.1-0.1,5h-9.3v3.8c0,0.1,0,0.3,0,0.5s0,0.5,0,0.6c0,0.4,0,0.8,0.1,1.1c0.1,0.3,0.1,0.6,0.2,1
	c0.1,0.3,0.3,0.5,0.5,0.7s0.5,0.3,0.8,0.3s0.6-0.1,0.8-0.3c0.2-0.3,0.3-0.6,0.5-1c0.1-0.5,0.1-0.9,0.1-1.2s0.1-0.8,0.1-1.4
	c0-1,0-1.6-0.1-1.7h6.4v1.5c0,1.5-0.1,2.7-0.3,3.8c-0.2,1-0.6,2-1.2,2.8c-0.6,0.8-1.4,1.4-2.5,1.9
	C102.8,421.5,101.5,421.7,99.9,421.7z M100.2,399c-0.3,0-0.6,0.1-0.8,0.3c-0.2,0.2-0.4,0.4-0.5,0.8c-0.1,0.3-0.2,0.7-0.2,1.1
	c-0.1,0.3-0.1,0.8-0.1,1.3c0,0.3,0,0.6,0,1.1s0,0.9,0,1.1h3v-2.8C101.6,399.9,101.1,399,100.2,399z"/>
<path fill="#212020" d="M110.5,421.4v-26.9h6.5v3c0.3-1.2,0.9-2.1,1.5-2.6c0.6-0.5,1.4-0.8,2.5-0.8c1.2,0,2.3,0.3,3.2,1.1
	s1.4,1.8,1.4,3.2v9h-6.2V401c0-0.3,0-0.6-0.1-0.8c0-0.2-0.1-0.4-0.3-0.6c-0.1-0.2-0.4-0.3-0.7-0.3c-0.3,0-0.6,0.1-0.8,0.4
	c-0.2,0.3-0.3,0.6-0.3,1.1v20.6H110.5L110.5,421.4z"/>
<path fill="#212020" d="M39.2,421.4h-6l-3.7-22v22h-6.5v-30.4h10.2l2.8,15.9l2.8-15.9h10.4v30.4h-6.5v-22L39.2,421.4z"/>
<path fill="none" stroke="#212020" stroke-miterlimit="10" d="M49.8,427.8H22.1c-1.7,0-3.1-1.4-3.1-3.1v-37.5c0-1.7,1.4-3.1,3.1-3.1
	h27.8c1.7,0,3.1,1.4,3.1,3.1v37.5C52.9,426.4,51.5,427.8,49.8,427.8z"/>
<path fill="#212020" d="M-111.8,421.4h-6l-3.7-22v22h-6.5v-30.4h10.2l2.8,15.9l2.8-15.9h10.4v30.4h-6.5v-22L-111.8,421.4z"/>
<path fill="none" stroke="#212020" stroke-miterlimit="10" d="M-101.1,427.8h-27.8c-1.7,0-3.1-1.4-3.1-3.1v-37.5
	c0-1.7,1.4-3.1,3.1-3.1h27.8c1.7,0,3.1,1.4,3.1,3.1v37.5C-98,426.4-99.4,427.8-101.1,427.8z"/>
</svg>
