<?xml version="1.0" encoding="utf-8"?>
<!-- Generator: Adobe Illustrator 18.1.1, SVG Export Plug-In . SVG Version: 6.00 Build 0)  -->
<svg version="1.1" id="Layer_1" xmlns="http://www.w3.org/2000/svg" xmlns:xlink="http://www.w3.org/1999/xlink" x="0px" y="0px"
	 width="261.5px" height="53px" viewBox="-174 370 261.5 53" enable-background="new -174 370 261.5 53" xml:space="preserve">
<path fill="#FAFAFA" d="M-136.5,403.7c0-2.4,0.3-4.2,1-5.4c0.6-1,1.6-1.9,3.2-2.6c0.8-0.3,2.5-1,5.1-1.9c0,0,0,0,0-0.1
	c0-0.4,0-0.7,0-1c0-0.2,0-0.5,0-0.8s0-0.5,0-0.7s0-0.3-0.1-0.6c0-0.2-0.1-0.4-0.1-0.5s-0.1-0.2-0.1-0.3c-0.1-0.1-0.1-0.3-0.2-0.3
	s-0.1-0.1-0.2-0.2s-0.2-0.1-0.3-0.1c-0.1-0.1-0.2-0.1-0.3-0.1c-0.9,0-1.3,0.5-1.3,1.4v1.8h-6.2c0-0.2,0-0.5,0-0.9
	c0-2.5,0.6-4.5,1.9-5.6c1.3-1.1,3.2-1.8,6.1-1.8c0.9,0,1.8,0.1,2.7,0.4s1.6,0.6,2.4,1.2c0.8,0.5,1.3,1.2,1.8,2.1s0.7,1.9,0.7,3.1
	v20.5h-6.6v-2.8c-0.2,0.8-0.7,1.5-1.5,2.1s-1.6,1-2.5,1c-0.6,0-1.2-0.1-1.7-0.1c-0.5-0.1-1-0.3-1.4-0.7c-0.4-0.4-0.9-0.8-1.2-1.4
	c-0.3-0.6-0.5-1.4-0.8-2.3C-136.5,406.1-136.5,405-136.5,403.7z M-130,401.1v3.2c0,1.6,0.5,2.4,1.4,2.4c0.3,0,0.5-0.1,0.7-0.2
	c0.2-0.1,0.3-0.3,0.4-0.5s0.1-0.5,0.2-0.7s0.1-0.4,0.1-0.7v-7.1c-1.1,0.4-1.9,1-2.2,1.6C-129.8,399.6-130,400.4-130,401.1z"/>
<path fill="#FAFAFA" d="M-117.8,411.4v-26.9h6.5v3c0.3-1.2,0.9-2.1,1.5-2.6s1.4-0.8,2.5-0.8c1.2,0,2.3,0.3,3.2,1.1
	c0.9,0.8,1.4,1.8,1.4,3.2v9h-6.2V391c0-0.3,0-0.6-0.1-0.8c0-0.2-0.1-0.4-0.3-0.6c-0.1-0.2-0.4-0.3-0.7-0.3c-0.3,0-0.6,0.1-0.8,0.4
	c-0.2,0.3-0.3,0.6-0.3,1.1v20.6L-117.8,411.4L-117.8,411.4z"/>
<path fill="#FAFAFA" d="M-91.7,414.7v-4.9c-0.5,0.6-1,1.1-1.6,1.4c-0.6,0.3-1.3,0.5-2,0.5c-0.8,0-1.5-0.1-2.1-0.3
	c-0.6-0.2-1.2-0.4-1.5-0.7c-0.4-0.3-0.8-0.7-1-1.2c-0.3-0.5-0.5-1-0.6-1.4c-0.1-0.4-0.3-1-0.3-1.7c-0.1-0.8-0.1-1.4-0.1-1.8
	s0-1.1,0-1.9c0-0.1,0-0.1,0-0.1V392c0-0.9,0.1-1.8,0.1-2.5c0.1-0.8,0.3-1.5,0.5-2.2s0.6-1.3,1-1.7c0.4-0.5,1-0.8,1.6-1.1
	c0.7-0.3,1.4-0.4,2.3-0.4c1.6,0,2.9,0.6,3.8,1.8v-1.4h6.5v30.2L-91.7,414.7L-91.7,414.7z M-91.7,392.1c0-1.9-0.5-2.8-1.5-2.8
	c-0.2,0-0.4,0.1-0.6,0.1s-0.3,0.2-0.4,0.4c-0.1,0.2-0.2,0.3-0.3,0.5s-0.1,0.3-0.1,0.6c-0.1,0.3,0,0.5-0.1,0.6c0,0.1,0,0.3,0,0.6
	v11.4c0,1.2,0.1,1.9,0.3,2.4c0.2,0.5,0.5,0.8,1.1,0.8c0.5,0,1-0.2,1.2-0.7s0.3-1.2,0.3-2.1L-91.7,392.1L-91.7,392.1z"/>
<path fill="#FAFAFA" d="M-72.8,384.5h6.4v26.9h-6.4v-2.9c-0.5,1.2-1.1,2.1-1.7,2.5s-1.4,0.6-2.4,0.6c-0.9,0-1.7-0.1-2.3-0.4
	c-0.7-0.3-1.2-0.6-1.5-1c-0.3-0.4-0.7-1-0.9-1.6c-0.2-0.7-0.3-1.3-0.4-1.9c-0.1-0.6-0.1-1.4-0.1-2.2v-20h6.5v18.7
	c0,1.4,0.1,2.3,0.3,2.7c0.1,0.5,0.5,0.7,1.2,0.7c0.2,0,0.5-0.1,0.6-0.1c0.2-0.1,0.3-0.2,0.4-0.4c0.1-0.2,0.2-0.3,0.3-0.5
	s0.1-0.4,0.1-0.7c0-0.3,0.1-0.5,0.1-0.7c0-0.1,0-0.4,0-0.7c0-0.1,0-0.1,0-0.2L-72.8,384.5z"/>
<path fill="#FAFAFA" d="M-56.1,411.7c-1,0-1.9-0.1-2.6-0.3s-1.4-0.5-2-0.8c-0.5-0.3-1-0.7-1.4-1.2c-0.4-0.5-0.7-1-0.9-1.5
	c-0.2-0.5-0.4-1.1-0.5-1.7s-0.2-1.2-0.3-1.8c-0.1-0.5-0.1-1.2-0.1-1.9v-10.8c0-2.5,0.7-4.4,2.1-5.7s3.4-2,6-2c5.1,0,7.8,2.5,7.8,7.6
	v1.9c0,2.4,0,4.1-0.1,5h-9.3v3.8c0,0.1,0,0.3,0,0.5s0,0.5,0,0.6c0,0.4,0,0.8,0.1,1.1c0.1,0.3,0.1,0.6,0.2,1c0.1,0.3,0.3,0.5,0.5,0.7
	c0.2,0.1,0.5,0.3,0.8,0.3s0.6-0.1,0.8-0.3c0.2-0.3,0.3-0.6,0.5-1c0.1-0.5,0.1-0.9,0.1-1.2s0.1-0.8,0.1-1.4c0-1,0-1.6-0.1-1.7h6.4
	v1.5c0,1.5-0.1,2.7-0.3,3.8c-0.2,1-0.6,2-1.2,2.8c-0.5,0.8-1.4,1.4-2.5,1.9C-53.1,411.5-54.5,411.7-56.1,411.7z M-55.9,389
	c-0.3,0-0.6,0.1-0.8,0.3c-0.2,0.2-0.4,0.4-0.5,0.8c-0.1,0.3-0.2,0.7-0.2,1.1c-0.1,0.3-0.1,0.8-0.1,1.3c0,0.3,0,0.6,0,1.1
	s0,0.9,0,1.1h3v-2.8C-54.4,389.9-54.9,389-55.9,389z"/>
<path fill="#FAFAFA" d="M-38.1,411.7c-1,0-1.9-0.1-2.6-0.3c-0.8-0.2-1.4-0.5-2-0.8c-0.5-0.3-1-0.7-1.4-1.2c-0.4-0.5-0.7-1-0.9-1.5
	s-0.4-1.1-0.5-1.7s-0.2-1.2-0.3-1.8c-0.1-0.5-0.1-1.2-0.1-1.9v-10.8c0-2.5,0.7-4.4,2.1-5.7c1.4-1.3,3.4-2,6-2c5.1,0,7.8,2.5,7.8,7.6
	v1.9c0,2.4,0,4.1-0.1,5h-9.3v3.8c0,0.1,0,0.3,0,0.5c0,0.3,0,0.5,0,0.6c0,0.4,0,0.8,0.1,1.1c0.1,0.3,0.1,0.6,0.2,1
	c0.1,0.3,0.3,0.5,0.5,0.7c0.2,0.1,0.5,0.3,0.8,0.3s0.6-0.1,0.8-0.3c0.2-0.3,0.3-0.6,0.5-1c0.1-0.5,0.1-0.9,0.1-1.2s0.1-0.8,0.1-1.4
	c0-1,0-1.6-0.1-1.7h6.4v1.5c0,1.5-0.1,2.7-0.3,3.8c-0.2,1-0.6,2-1.2,2.8s-1.4,1.4-2.5,1.9C-35.2,411.5-36.5,411.7-38.1,411.7z
	 M-37.9,389c-0.3,0-0.6,0.1-0.8,0.3c-0.2,0.2-0.4,0.4-0.5,0.8c-0.1,0.3-0.2,0.7-0.2,1.1c-0.1,0.3-0.1,0.8-0.1,1.3c0,0.3,0,0.6,0,1.1
	s0,0.9,0,1.1h3v-2.8C-36.4,389.9-36.9,389-37.9,389z"/>
<path fill="#FAFAFA" d="M14,403.7c0-2.4,0.3-4.2,1-5.4c0.6-1,1.6-1.9,3.2-2.6c0.8-0.3,2.5-1,5.1-1.9c0,0,0,0,0-0.1c0-0.4,0-0.7,0-1
	c0-0.2,0-0.5,0-0.8s0-0.5,0-0.7s0-0.3-0.1-0.6s-0.1-0.4-0.1-0.5s-0.1-0.2-0.1-0.3s-0.1-0.3-0.2-0.3s-0.1-0.1-0.2-0.2
	s-0.2-0.1-0.3-0.1c-0.1,0-0.2-0.1-0.3-0.1c-0.9,0-1.3,0.5-1.3,1.4v1.8h-6.2c0-0.2,0-0.5,0-0.9c0-2.5,0.6-4.5,1.9-5.6
	c1.2-1.2,3.2-1.8,6.1-1.8c0.9,0,1.8,0.1,2.7,0.4s1.6,0.6,2.4,1.2c0.8,0.5,1.3,1.2,1.8,2.1s0.7,1.9,0.7,3.1v20.5h-6.4v-2.8
	c-0.2,0.8-0.7,1.5-1.5,2.1c-0.8,0.6-1.6,1-2.5,1c-0.6,0-1.2-0.1-1.7-0.1c-0.5-0.1-1-0.3-1.4-0.7c-0.5-0.3-0.9-0.8-1.2-1.4
	s-0.5-1.4-0.8-2.3C14.1,406.1,14,405,14,403.7z M20.5,401.1v3.2c0,1.6,0.5,2.4,1.4,2.4c0.3,0,0.5-0.1,0.7-0.2s0.3-0.3,0.4-0.5
	s0.1-0.5,0.2-0.7s0.1-0.4,0.1-0.7v-7.1c-1.1,0.4-1.9,1-2.2,1.6C20.7,399.6,20.5,400.4,20.5,401.1z"/>
<path fill="#FAFAFA" d="M32.8,411.4v-31.7h6.3v14.1l3.1-9.3h6.7l-4.1,11.7l5.1,15.2H43l-4-12.7v12.7L32.8,411.4L32.8,411.4z"/>
<path fill="#FAFAFA" d="M57.9,411.7c-1,0-1.9-0.1-2.6-0.3s-1.4-0.5-2-0.8c-0.5-0.3-1-0.7-1.4-1.2s-0.7-1-0.9-1.5
	c-0.2-0.5-0.4-1.1-0.5-1.7s-0.2-1.2-0.3-1.8c-0.1-0.5-0.1-1.2-0.1-1.9v-10.8c0-2.5,0.7-4.4,2.1-5.7s3.4-2,6-2c5.1,0,7.8,2.5,7.8,7.6
	v1.9c0,2.4,0,4.1-0.1,5h-9.3v3.8c0,0.1,0,0.3,0,0.5s0,0.5,0,0.6c0,0.4,0,0.8,0.1,1.1c0.1,0.3,0.1,0.6,0.2,1c0.1,0.3,0.3,0.5,0.5,0.7
	s0.5,0.3,0.8,0.3s0.6-0.1,0.8-0.3c0.2-0.3,0.3-0.6,0.5-1c0.1-0.5,0.1-0.9,0.1-1.2s0.1-0.8,0.1-1.4c0-1,0-1.6-0.1-1.7H66v1.5
	c0,1.5-0.1,2.7-0.3,3.8c-0.2,1-0.6,2-1.2,2.8s-1.4,1.4-2.5,1.9C60.8,411.5,59.5,411.7,57.9,411.7z M58.2,389c-0.3,0-0.6,0.1-0.8,0.3
	c-0.2,0.2-0.4,0.4-0.5,0.8c-0.1,0.3-0.2,0.7-0.2,1.1c-0.1,0.3-0.1,0.8-0.1,1.3c0,0.3,0,0.6,0,1.1s0,0.9,0,1.1h3v-2.8
	C59.6,389.9,59.1,389,58.2,389z"/>
<path fill="#FAFAFA" d="M68.5,411.4v-26.9H75v3c0.3-1.2,0.9-2.1,1.5-2.6s1.4-0.8,2.5-0.8c1.2,0,2.3,0.3,3.2,1.1s1.4,1.8,1.4,3.2v9
	h-6.2V391c0-0.3,0-0.6-0.1-0.8c0-0.2-0.1-0.4-0.3-0.6c-0.1-0.2-0.4-0.3-0.7-0.3c-0.3,0-0.6,0.1-0.8,0.4c-0.2,0.3-0.3,0.6-0.3,1.1
	v20.6L68.5,411.4L68.5,411.4z"/>
<path fill="#FAFAFA" d="M-2.8,411.4h-6l-3.7-22v22H-19V381h10.2l2.8,15.9l2.8-15.9H7.2v30.4H0.7v-22L-2.8,411.4z"/>
<path fill="none" stroke="#FAFAFA" stroke-miterlimit="10" d="M7.8,417.8h-27.7c-1.7,0-3.1-1.4-3.1-3.1v-37.5c0-1.7,1.4-3.1,3.1-3.1
	H7.9c1.7,0,3.1,1.4,3.1,3.1v37.5C10.9,416.4,9.5,417.8,7.8,417.8z"/>
<path fill="#FAFAFA" d="M-153.8,411.4h-6l-3.7-22v22h-6.5V381h10.2l2.8,15.9l2.8-15.9h10.4v30.4h-6.5v-22L-153.8,411.4z"/>
<path fill="none" stroke="#FAFAFA" stroke-miterlimit="10" d="M-143.1,417.8h-27.8c-1.7,0-3.1-1.4-3.1-3.1v-37.5
	c0-1.7,1.4-3.1,3.1-3.1h27.8c1.7,0,3.1,1.4,3.1,3.1v37.5C-140,416.4-141.4,417.8-143.1,417.8z"/>
</svg>
